<?xml version='1.0' encoding='utf-8'?>
<svg viewBox="0 0 560 255" role="img" xmlns="http://www.w3.org/2000/svg"><text x="280" y="24" text-anchor="middle" font-size="18">Ribbon lengths</text><line x1="50" y1="180" x2="510" y2="180" stroke="#172d38" /><line x1="65.0" y1="176" x2="65.0" y2="185" stroke="#172d38" /><text x="65.0" y="210" text-anchor="middle" font-size="17">1/2</text><path d="M60.0,152L70.0,162M60.0,162L70.0,152" stroke="#15685b" stroke-width="2" /><path d="M60.0,129L70.0,139M60.0,139L70.0,129" stroke="#15685b" stroke-width="2" /><line x1="208.33333333333331" y1="176" x2="208.33333333333331" y2="185" stroke="#172d38" /><text x="208.33333333333331" y="210" text-anchor="middle" font-size="17">3/4</text><path d="M203.33333333333331,152L213.33333333333331,162M203.33333333333331,162L213.33333333333331,152" stroke="#15685b" stroke-width="2" /><path d="M203.33333333333331,129L213.33333333333331,139M203.33333333333331,139L213.33333333333331,129" stroke="#15685b" stroke-width="2" /><path d="M203.33333333333331,106L213.33333333333331,116M203.33333333333331,116L213.33333333333331,106" stroke="#15685b" stroke-width="2" /><line x1="351.66666666666663" y1="176" x2="351.66666666666663" y2="185" stroke="#172d38" /><text x="351.66666666666663" y="210" text-anchor="middle" font-size="17">1</text><path d="M346.66666666666663,152L356.66666666666663,162M346.66666666666663,162L356.66666666666663,152" stroke="#15685b" stroke-width="2" /><line x1="495.0" y1="176" x2="495.0" y2="185" stroke="#172d38" /><text x="495.0" y="210" text-anchor="middle" font-size="17">5/4</text><path d="M490.0,152L500.0,162M490.0,162L500.0,152" stroke="#15685b" stroke-width="2" /><path d="M490.0,129L500.0,139M490.0,139L500.0,129" stroke="#15685b" stroke-width="2" /><text x="280" y="242" text-anchor="middle" font-size="16">Length in metres · Each × represents one measurement</text></svg>