<svg xmlns="http://www.w3.org/2000/svg" viewBox="0 0 768 462" width="768" height="462" role="img" aria-label="Test Results for Meadowcrest PS"><text x="418.0" y="26" text-anchor="middle" font-size="21" font-family="Georgia,serif">Test Results for Meadowcrest PS</text><line x1="108.0" y1="44" x2="108.0" y2="384" stroke="#c6cfc7" stroke-width="1"/><text x="108.0" y="406" text-anchor="middle" font-size="15" font-family="Georgia,serif">0</text><line x1="164.36363636363637" y1="44" x2="164.36363636363637" y2="384" stroke="#c6cfc7" stroke-width="1"/><text x="164.36363636363637" y="406" text-anchor="middle" font-size="15" font-family="Georgia,serif">2</text><line x1="220.72727272727275" y1="44" x2="220.72727272727275" y2="384" stroke="#c6cfc7" stroke-width="1"/><text x="220.72727272727275" y="406" text-anchor="middle" font-size="15" font-family="Georgia,serif">4</text><line x1="277.0909090909091" y1="44" x2="277.0909090909091" y2="384" stroke="#c6cfc7" stroke-width="1"/><text x="277.0909090909091" y="406" text-anchor="middle" font-size="15" font-family="Georgia,serif">6</text><line x1="333.4545454545455" y1="44" x2="333.4545454545455" y2="384" stroke="#c6cfc7" stroke-width="1"/><text x="333.4545454545455" y="406" text-anchor="middle" font-size="15" font-family="Georgia,serif">8</text><line x1="389.8181818181818" y1="44" x2="389.8181818181818" y2="384" stroke="#c6cfc7" stroke-width="1"/><text x="389.8181818181818" y="406" text-anchor="middle" font-size="15" font-family="Georgia,serif">10</text><line x1="446.1818181818182" y1="44" x2="446.1818181818182" y2="384" stroke="#c6cfc7" stroke-width="1"/><text x="446.1818181818182" y="406" text-anchor="middle" font-size="15" font-family="Georgia,serif">12</text><line x1="502.54545454545456" y1="44" x2="502.54545454545456" y2="384" stroke="#c6cfc7" stroke-width="1"/><text x="502.54545454545456" y="406" text-anchor="middle" font-size="15" font-family="Georgia,serif">14</text><line x1="558.909090909091" y1="44" x2="558.909090909091" y2="384" stroke="#c6cfc7" stroke-width="1"/><text x="558.909090909091" y="406" text-anchor="middle" font-size="15" font-family="Georgia,serif">16</text><line x1="615.2727272727273" y1="44" x2="615.2727272727273" y2="384" stroke="#c6cfc7" stroke-width="1"/><text x="615.2727272727273" y="406" text-anchor="middle" font-size="15" font-family="Georgia,serif">18</text><line x1="671.6363636363636" y1="44" x2="671.6363636363636" y2="384" stroke="#c6cfc7" stroke-width="1"/><text x="671.6363636363636" y="406" text-anchor="middle" font-size="15" font-family="Georgia,serif">20</text><line x1="728.0" y1="44" x2="728.0" y2="384" stroke="#c6cfc7" stroke-width="1"/><text x="728.0" y="406" text-anchor="middle" font-size="15" font-family="Georgia,serif">22</text><rect x="108" y="50" width="112.72727272727275" height="22" fill="#417a72"/><text x="94" y="66.0" text-anchor="end" font-size="15" font-family="monospace">A+</text><rect x="108" y="84" width="169.09090909090912" height="22" fill="#417a72"/><text x="94" y="100.0" text-anchor="end" font-size="15" font-family="monospace">A</text><rect x="108" y="118" width="225.4545454545455" height="22" fill="#417a72"/><text x="94" y="134.0" text-anchor="end" font-size="15" font-family="monospace">A−</text><rect x="108" y="152" width="450.909090909091" height="22" fill="#417a72"/><text x="94" y="168.0" text-anchor="end" font-size="15" font-family="monospace">B+</text><rect x="108" y="186" width="591.8181818181819" height="22" fill="#417a72"/><text x="94" y="202.0" text-anchor="end" font-size="15" font-family="monospace">B</text><rect x="108" y="220" width="479.090909090909" height="22" fill="#417a72"/><text x="94" y="236.0" text-anchor="end" font-size="15" font-family="monospace">B−</text><text x="94" y="270.0" text-anchor="end" font-size="15" font-family="monospace">C+</text><rect x="108" y="288" width="112.72727272727275" height="22" fill="#417a72"/><text x="94" y="304.0" text-anchor="end" font-size="15" font-family="monospace">C</text><rect x="108" y="322" width="84.54545454545456" height="22" fill="#417a72"/><text x="94" y="338.0" text-anchor="end" font-size="15" font-family="monospace">C−</text><rect x="108" y="356" width="28.181818181818187" height="22" fill="#417a72"/><text x="94" y="372.0" text-anchor="end" font-size="15" font-family="monospace">D+</text><line x1="108" y1="44" x2="108" y2="384" stroke="#45574d" stroke-width="1.5"/><text x="418.0" y="450" text-anchor="middle" font-size="17" font-family="Georgia,serif">Number of Students</text><text x="26" y="214.0" text-anchor="middle" font-size="17" font-family="Georgia,serif" transform="rotate(-90 26 214.0)">Grade</text></svg>