<svg xmlns="http://www.w3.org/2000/svg" viewBox="0 0 300 300" width="300" height="300" role="img" aria-label="Analog clock for the time problem"><circle cx="150.0" cy="150.0" r="142.0" fill="#50675c"/><circle cx="150.0" cy="150.0" r="132.0" fill="#f5f3eb"/><line x1="150.0" y1="36.5" x2="150.0" y2="22.0" stroke="#31483d" stroke-width="3"/><line x1="162.6" y1="30.5" x2="163.4" y2="22.7" stroke="#31483d" stroke-width="1.2"/><line x1="175.0" y1="32.5" x2="176.6" y2="24.8" stroke="#31483d" stroke-width="1.2"/><line x1="187.1" y1="35.8" x2="189.6" y2="28.2" stroke="#31483d" stroke-width="1.2"/><line x1="198.9" y1="40.3" x2="202.1" y2="33.0" stroke="#31483d" stroke-width="1.2"/><line x1="206.8" y1="51.7" x2="214.0" y2="39.1" stroke="#31483d" stroke-width="3"/><line x1="220.6" y1="52.8" x2="225.3" y2="46.4" stroke="#31483d" stroke-width="1.2"/><line x1="230.4" y1="60.7" x2="235.7" y2="54.8" stroke="#31483d" stroke-width="1.2"/><line x1="239.3" y1="69.6" x2="245.2" y2="64.3" stroke="#31483d" stroke-width="1.2"/><line x1="247.2" y1="79.4" x2="253.6" y2="74.7" stroke="#31483d" stroke-width="1.2"/><line x1="248.3" y1="93.2" x2="260.9" y2="86.0" stroke="#31483d" stroke-width="3"/><line x1="259.7" y1="101.1" x2="267.0" y2="97.9" stroke="#31483d" stroke-width="1.2"/><line x1="264.2" y1="112.9" x2="271.8" y2="110.4" stroke="#31483d" stroke-width="1.2"/><line x1="267.5" y1="125.0" x2="275.2" y2="123.4" stroke="#31483d" stroke-width="1.2"/><line x1="269.5" y1="137.4" x2="277.3" y2="136.6" stroke="#31483d" stroke-width="1.2"/><line x1="263.5" y1="150.0" x2="278.0" y2="150.0" stroke="#31483d" stroke-width="3"/><line x1="269.5" y1="162.6" x2="277.3" y2="163.4" stroke="#31483d" stroke-width="1.2"/><line x1="267.5" y1="175.0" x2="275.2" y2="176.6" stroke="#31483d" stroke-width="1.2"/><line x1="264.2" y1="187.1" x2="271.8" y2="189.6" stroke="#31483d" stroke-width="1.2"/><line x1="259.7" y1="198.9" x2="267.0" y2="202.1" stroke="#31483d" stroke-width="1.2"/><line x1="248.3" y1="206.8" x2="260.9" y2="214.0" stroke="#31483d" stroke-width="3"/><line x1="247.2" y1="220.6" x2="253.6" y2="225.3" stroke="#31483d" stroke-width="1.2"/><line x1="239.3" y1="230.4" x2="245.2" y2="235.7" stroke="#31483d" stroke-width="1.2"/><line x1="230.4" y1="239.3" x2="235.7" y2="245.2" stroke="#31483d" stroke-width="1.2"/><line x1="220.6" y1="247.2" x2="225.3" y2="253.6" stroke="#31483d" stroke-width="1.2"/><line x1="206.8" y1="248.3" x2="214.0" y2="260.9" stroke="#31483d" stroke-width="3"/><line x1="198.9" y1="259.7" x2="202.1" y2="267.0" stroke="#31483d" stroke-width="1.2"/><line x1="187.1" y1="264.2" x2="189.6" y2="271.8" stroke="#31483d" stroke-width="1.2"/><line x1="175.0" y1="267.5" x2="176.6" y2="275.2" stroke="#31483d" stroke-width="1.2"/><line x1="162.6" y1="269.5" x2="163.4" y2="277.3" stroke="#31483d" stroke-width="1.2"/><line x1="150.0" y1="263.5" x2="150.0" y2="278.0" stroke="#31483d" stroke-width="3"/><line x1="137.4" y1="269.5" x2="136.6" y2="277.3" stroke="#31483d" stroke-width="1.2"/><line x1="125.0" y1="267.5" x2="123.4" y2="275.2" stroke="#31483d" stroke-width="1.2"/><line x1="112.9" y1="264.2" x2="110.4" y2="271.8" stroke="#31483d" stroke-width="1.2"/><line x1="101.1" y1="259.7" x2="97.9" y2="267.0" stroke="#31483d" stroke-width="1.2"/><line x1="93.2" y1="248.3" x2="86.0" y2="260.9" stroke="#31483d" stroke-width="3"/><line x1="79.4" y1="247.2" x2="74.7" y2="253.6" stroke="#31483d" stroke-width="1.2"/><line x1="69.6" y1="239.3" x2="64.3" y2="245.2" stroke="#31483d" stroke-width="1.2"/><line x1="60.7" y1="230.4" x2="54.8" y2="235.7" stroke="#31483d" stroke-width="1.2"/><line x1="52.8" y1="220.6" x2="46.4" y2="225.3" stroke="#31483d" stroke-width="1.2"/><line x1="51.7" y1="206.8" x2="39.1" y2="214.0" stroke="#31483d" stroke-width="3"/><line x1="40.3" y1="198.9" x2="33.0" y2="202.1" stroke="#31483d" stroke-width="1.2"/><line x1="35.8" y1="187.1" x2="28.2" y2="189.6" stroke="#31483d" stroke-width="1.2"/><line x1="32.5" y1="175.0" x2="24.8" y2="176.6" stroke="#31483d" stroke-width="1.2"/><line x1="30.5" y1="162.6" x2="22.7" y2="163.4" stroke="#31483d" stroke-width="1.2"/><line x1="36.5" y1="150.0" x2="22.0" y2="150.0" stroke="#31483d" stroke-width="3"/><line x1="30.5" y1="137.4" x2="22.7" y2="136.6" stroke="#31483d" stroke-width="1.2"/><line x1="32.5" y1="125.0" x2="24.8" y2="123.4" stroke="#31483d" stroke-width="1.2"/><line x1="35.8" y1="112.9" x2="28.2" y2="110.4" stroke="#31483d" stroke-width="1.2"/><line x1="40.3" y1="101.1" x2="33.0" y2="97.9" stroke="#31483d" stroke-width="1.2"/><line x1="51.7" y1="93.2" x2="39.1" y2="86.0" stroke="#31483d" stroke-width="3"/><line x1="52.8" y1="79.4" x2="46.4" y2="74.7" stroke="#31483d" stroke-width="1.2"/><line x1="60.7" y1="69.6" x2="54.8" y2="64.3" stroke="#31483d" stroke-width="1.2"/><line x1="69.6" y1="60.7" x2="64.3" y2="54.8" stroke="#31483d" stroke-width="1.2"/><line x1="79.4" y1="52.8" x2="74.7" y2="46.4" stroke="#31483d" stroke-width="1.2"/><line x1="93.2" y1="51.7" x2="86.0" y2="39.1" stroke="#31483d" stroke-width="3"/><line x1="101.1" y1="40.3" x2="97.9" y2="33.0" stroke="#31483d" stroke-width="1.2"/><line x1="112.9" y1="35.8" x2="110.4" y2="28.2" stroke="#31483d" stroke-width="1.2"/><line x1="125.0" y1="32.5" x2="123.4" y2="24.8" stroke="#31483d" stroke-width="1.2"/><line x1="137.4" y1="30.5" x2="136.6" y2="22.7" stroke="#31483d" stroke-width="1.2"/><text x="198.8" y="71.4" text-anchor="middle" font-size="20" font-weight="bold" font-family="Helvetica,Arial,sans-serif">1</text><text x="234.6" y="107.2" text-anchor="middle" font-size="20" font-weight="bold" font-family="Helvetica,Arial,sans-serif">2</text><text x="247.7" y="156.0" text-anchor="middle" font-size="20" font-weight="bold" font-family="Helvetica,Arial,sans-serif">3</text><text x="234.6" y="204.8" text-anchor="middle" font-size="20" font-weight="bold" font-family="Helvetica,Arial,sans-serif">4</text><text x="198.8" y="240.6" text-anchor="middle" font-size="20" font-weight="bold" font-family="Helvetica,Arial,sans-serif">5</text><text x="150.0" y="253.7" text-anchor="middle" font-size="20" font-weight="bold" font-family="Helvetica,Arial,sans-serif">6</text><text x="101.2" y="240.6" text-anchor="middle" font-size="20" font-weight="bold" font-family="Helvetica,Arial,sans-serif">7</text><text x="65.4" y="204.8" text-anchor="middle" font-size="20" font-weight="bold" font-family="Helvetica,Arial,sans-serif">8</text><text x="52.3" y="156.0" text-anchor="middle" font-size="20" font-weight="bold" font-family="Helvetica,Arial,sans-serif">9</text><text x="65.4" y="107.2" text-anchor="middle" font-size="20" font-weight="bold" font-family="Helvetica,Arial,sans-serif">10</text><text x="101.2" y="71.4" text-anchor="middle" font-size="20" font-weight="bold" font-family="Helvetica,Arial,sans-serif">11</text><text x="150.0" y="58.3" text-anchor="middle" font-size="20" font-weight="bold" font-family="Helvetica,Arial,sans-serif">12</text><line x1="150.0" y1="150.0" x2="95.6" y2="112.6" stroke="#31483d" stroke-width="6" stroke-linecap="round"/><line x1="150.0" y1="150.0" x2="231.2" y2="91.0" stroke="#31483d" stroke-width="4" stroke-linecap="round"/><circle cx="150.0" cy="150.0" r="5" fill="#31483d"/></svg>